# xmcd
#
# Track frame offsets:
#	150
#	29647
#	47859
#	65971
#	82456
#	105800
#	126925
#	139745
#	158348
#	176553
#	192691
#	208918
#	223662
#	243110
#	259174
#	276128
#	291236
#	308448
#
# Disc length: 4311 seconds
#
# Revision: 1
# Processed by: cddbd v1.5.2PL0 Copyright (c) Steve Scherf et al.
# Submitted via: audiograbber 1.83.01
#
DISCID=1910d512
DTITLE=Various Artist - Top 50 -1991- CD1
DYEAR=1991
DGENRE=Pop
TTITLE0=Bryan Adams - (Everything I Do) I Do It For You
TTITLE1=Johnny Hallyday - Diego Libre Dans Sa Tête
TTITLE2=Lenny Kravitz - It Ain't Over 'Til It's Over
TTITLE3=Stephane Eicher - Dejeuner En Paix
TTITLE4=Scorpions - Wind Of Change
TTITLE5=Florent Pagny - Presse Qui Roule
TTITLE6=Cher - The Shoop Shoop Song (It's in His Kiss)
TTITLE7=Michel Sardou - Le Privilège
TTITLE8=Zucchero - Diavolo In Me
TTITLE9=Bernard Lavilliers - Outremer
TTITLE10=The Righteous Brothers - Unchained Melody
TTITLE11=Amina - Le Dernier Qui A Parlé
TTITLE12=Paula Abdul - Rush Rush
TTITLE13=François Feldman - Magic Boul'vard
TTITLE14=Crystal Waters - Gypsy Woman (La Da Dee La Da Da)
TTITLE15=Elmer Food Beat - Le Plastique C'est Fantastique
TTITLE16=Vanilla Ice - Ice Ice Baby
TTITLE17=Rozlyne Clarke - Eddy Steady Go
EXTD=
EXTT0=
EXTT1=
EXTT2=
EXTT3=
EXTT4=
EXTT5=
EXTT6=
EXTT7=
EXTT8=
EXTT9=
EXTT10=
EXTT11=
EXTT12=
EXTT13=
EXTT14=
EXTT15=
EXTT16=
EXTT17=
PLAYORDER=
